# xmcd
#
# Track frame offsets: 
#        150
#        15424
#        26617
#        39968
#        53192
#        67196
#        78307
#        88982
#        100614
#        114089
#        126470
#        138069
#        151074
#        163722
#        176699
#        189788
#        201633
#        216318
#        228116
#        238956
#        249970
#        261316
#        272822
#        283940
#        298083
#
# Disc length: 4160 seconds
#
# Revision: 2
# Processed by: cddbd v1.5.1PL2 Copyright (c) Steve Scherf et al.
# Submitted via: ExactAudioCopy v0.95b2
#
DISCID=67103e19
DTITLE=Various Artist - Doo-Wop Delights Volume 4: Call  a Doctor
DYEAR=1900
DGENRE=Doo Wop
TTITLE0=The Five Crowns - Why Don't You Believe Me
TTITLE1=The Serenaders - Will She Know
TTITLE2=The Du-Droppers - Come On And Love Me Baby
TTITLE3=Jimmy Ricks and The Ravens - Rough Ridin
TTITLE4=The Treniers - Straighten Up Baby
TTITLE5=The Flairs - I Had A Love
TTITLE6=The Red Caps - Dirt Dishin Daisy
TTITLE7=The Flamingos - You Aint Ready
TTITLE8=The Marylanders - Fried Chicken
TTITLE9=The Cardinals - Lovie Darling
TTITLE10=The Spaniels - Get Away Child You Don't Move Me
TTITLE11=The Moonglows - Baby Please
TTITLE12=The Four Flames - Tabarin
TTITLE13=The Du-Droppers - Little Girl LIttle Girl
TTITLE14=The Orioles - Getting Tired Tired Tired
TTITLE15=The Robins - A Falling Star
TTITLE16=The Five Keys - Red Sails In The Sunset
TTITLE17=Billy Williams Quartet - Between The Devil and The Deep Blue Se
TTITLE17=a
TTITLE18=The Orchids - All Night Long
TTITLE19=The Lamplighters - Be Bop Wino
TTITLE20=The Crows - Call A Doctor
TTITLE21=The Orioles - See See Rider
TTITLE22=The Moonglows - Whistle My Love
TTITLE23=The Larks - I Live True To You
TTITLE24=The Cardinals - She Rocks
EXTD=
EXTT0=
EXTT1=
EXTT2=
EXTT3=
EXTT4=
EXTT5=
EXTT6=
EXTT7=
EXTT8=
EXTT9=
EXTT10=
EXTT11=
EXTT12=
EXTT13=
EXTT14=
EXTT15=
EXTT16=
EXTT17=
EXTT18=
EXTT19=
EXTT20=
EXTT21=
EXTT22=
EXTT23=
EXTT24=
PLAYORDER=
